<svg width="4" height="20" viewBox="0 0 4 20" fill="none" xmlns="http://www.w3.org/2000/svg">
<path fill-rule="evenodd" clip-rule="evenodd" d="M0.4 2C0.4 1.57566 0.568571 1.16869 0.868629 0.868631C1.16869 0.568572 1.57565 0.400002 2 0.400002C2.42435 0.400002 2.83131 0.568572 3.13137 0.868631C3.43143 1.16869 3.6 1.57566 3.6 2C3.6 2.42435 3.43143 2.83131 3.13137 3.13137C2.83131 3.43143 2.42435 3.6 2 3.6C1.57565 3.6 1.16869 3.43143 0.868629 3.13137C0.568571 2.83131 0.4 2.42435 0.4 2ZM0.4 10C0.4 9.57565 0.568571 9.16869 0.868629 8.86863C1.16869 8.56857 1.57565 8.4 2 8.4C2.42435 8.4 2.83131 8.56857 3.13137 8.86863C3.43143 9.16869 3.6 9.57565 3.6 10C3.6 10.4243 3.43143 10.8313 3.13137 11.1314C2.83131 11.4314 2.42435 11.6 2 11.6C1.57565 11.6 1.16869 11.4314 0.868629 11.1314C0.568571 10.8313 0.4 10.4243 0.4 10ZM0.4 18C0.4 17.5757 0.568571 17.1687 0.868629 16.8686C1.16869 16.5686 1.57565 16.4 2 16.4C2.42435 16.4 2.83131 16.5686 3.13137 16.8686C3.43143 17.1687 3.6 17.5757 3.6 18C3.6 18.4243 3.43143 18.8313 3.13137 19.1314C2.83131 19.4314 2.42435 19.6 2 19.6C1.57565 19.6 1.16869 19.4314 0.868629 19.1314C0.568571 18.8313 0.4 18.4243 0.4 18Z" fill="#FAFAFA"/>
</svg>
