<svg width="17" height="20" viewBox="0 0 17 20" fill="none" xmlns="http://www.w3.org/2000/svg">
<path d="M14 10.8337L1.22125 19.3525C1.12713 19.4151 1.01779 19.4511 0.904864 19.4565C0.791941 19.4619 0.679667 19.4365 0.58 19.3832C0.480333 19.3298 0.397005 19.2504 0.338892 19.1534C0.280779 19.0565 0.250059 18.9456 0.25 18.8325L0.250002 1.1675C0.250061 1.05445 0.280781 0.943526 0.338894 0.846552C0.397007 0.749577 0.480335 0.670184 0.580002 0.616824C0.679668 0.563462 0.791942 0.538134 0.904866 0.543536C1.01779 0.548937 1.12713 0.584866 1.22125 0.647498L14 9.16625L14 1.25C14 0.91848 14.1317 0.600536 14.3661 0.366115C14.6005 0.131695 14.9185 -1.38261e-07 15.25 -1.09278e-07C15.5815 -8.0296e-08 15.8995 0.131695 16.1339 0.366116C16.3683 0.600536 16.5 0.91848 16.5 1.25L16.5 18.75C16.5 19.0815 16.3683 19.3995 16.1339 19.6339C15.8995 19.8683 15.5815 20 15.25 20C14.9185 20 14.6005 19.8683 14.3661 19.6339C14.1317 19.3995 14 19.0815 14 18.75L14 10.8337Z" fill="#FAFAFA"/>
</svg>
