<svg width="18" height="18" viewBox="0 0 18 18" fill="none" xmlns="http://www.w3.org/2000/svg">
<path d="M5.625 16.875H2.25C1.95163 16.875 1.66548 16.7565 1.4545 16.5455C1.24353 16.3345 1.125 16.0484 1.125 15.75V9C1.125 8.70163 1.24353 8.41548 1.4545 8.20451C1.66548 7.99353 1.95163 7.875 2.25 7.875H5.625C5.92337 7.875 6.20952 7.99353 6.4205 8.20451C6.63147 8.41548 6.75 8.70163 6.75 9V15.75C6.75 16.0484 6.63147 16.3345 6.4205 16.5455C6.20952 16.7565 5.92337 16.875 5.625 16.875ZM2.25 9V15.75H5.625V9H2.25Z" fill="#AEAEAE"/>
<path d="M15.75 2.25H3.375C3.07663 2.25 2.79048 2.36853 2.5795 2.5795C2.36853 2.79048 2.25 3.07663 2.25 3.375V6.75H3.375V3.375H15.75V11.25H7.875V12.375H9V14.625H7.875V15.75H12.9375V14.625H10.125V12.375H15.75C16.0484 12.375 16.3345 12.2565 16.5455 12.0455C16.7565 11.8345 16.875 11.5484 16.875 11.25V3.375C16.875 3.07663 16.7565 2.79048 16.5455 2.5795C16.3345 2.36853 16.0484 2.25 15.75 2.25Z" fill="#AEAEAE"/>
</svg>
