<svg width="24" height="22" viewBox="0 0 24 22" fill="none" xmlns="http://www.w3.org/2000/svg">
<g clip-path="url(#clip0)">
<path d="M6.64615 1.55631C7.76923 1.55631 9.15385 2.38947 10.8 4.0558L11.8615 5.11691L12.9 4.03222C13.1308 3.7807 13.3731 3.5449 13.6269 3.32482C13.8808 3.10474 14.1308 2.90038 14.3769 2.71173C14.6231 2.52309 14.8654 2.35803 15.1038 2.21655C15.3423 2.07507 15.5692 1.95324 15.7846 1.85106C16 1.74888 16.2115 1.67421 16.4192 1.62705C16.6269 1.57989 16.8154 1.55631 16.9846 1.55631C18.3538 1.55631 19.5615 2.09079 20.6077 3.15976C21.6692 4.24444 22.2 5.54921 22.2 7.07406C22.2 8.59891 21.6692 9.91153 20.6077 11.0119C20.5308 11.0748 17.7692 14.1167 12.3231 20.1375C12.2462 20.2161 12.1615 20.2671 12.0692 20.2907C11.9769 20.3143 11.9 20.3261 11.8385 20.3261C11.6538 20.3261 11.4923 20.2632 11.3538 20.1375C6.36923 14.4782 3.60769 11.3735 3.06923 10.8233C2.94615 10.6975 2.82692 10.56 2.71154 10.4106C2.59615 10.2613 2.48846 10.112 2.38846 9.96262C2.28846 9.81328 2.19615 9.66001 2.11154 9.50281C2.02692 9.34561 1.95 9.18448 1.88077 9.01942C1.81154 8.85436 1.75385 8.68537 1.70769 8.51245C1.66154 8.33953 1.61923 8.1666 1.58077 7.99368C1.54231 7.82076 1.51538 7.63998 1.5 7.45134C1.48462 7.2627 1.47692 7.08192 1.47692 6.909C1.47692 5.36843 2.00769 4.0558 3.06923 2.97112C3.56154 2.48379 4.1 2.12616 4.68462 1.89822C5.26923 1.67028 5.92308 1.55631 6.64615 1.55631ZM6.64615 0.0471802C5.73846 0.0471802 4.9 0.196521 4.13077 0.495203C3.36154 0.793884 2.66154 1.26549 2.03077 1.91001C1.36923 2.58597 0.865385 3.36412 0.519231 4.24444C0.173077 5.12477 0 6.00902 0 6.89721C0 7.78539 0.173077 8.66965 0.519231 9.54997C0.865385 10.4303 1.36923 11.2084 2.03077 11.8844C2.16923 12.0259 2.55 12.4464 3.17308 13.1459C3.79615 13.8455 4.49615 14.6354 5.27308 15.5157C6.05 16.3961 6.81923 17.2685 7.58077 18.1331C8.34231 18.9977 8.98462 19.7209 9.50769 20.3025L10.2923 21.175C10.7077 21.6151 11.2192 21.8352 11.8269 21.8352C12.4346 21.8352 12.9538 21.6151 13.3846 21.175C18.8308 15.1542 21.5846 12.1202 21.6462 12.073C23 10.6897 23.6769 9.02335 23.6769 7.07406C23.6769 5.12477 23 3.4663 21.6462 2.09865C20.9692 1.40697 20.25 0.892135 19.4885 0.554153C18.7269 0.216171 17.8923 0.0471802 16.9846 0.0471802C16.1692 0.0471802 15.3115 0.322282 14.4115 0.872485C13.5115 1.42269 12.6538 2.12223 11.8385 2.97112C9.9 1.02183 8.16923 0.0471802 6.64615 0.0471802Z" fill="#FAFAFA"/>
</g>
<defs>
<clipPath id="clip0">
<rect width="24" height="21.8824" fill="white"/>
</clipPath>
</defs>
</svg>
