<svg width="22" height="24" viewBox="0 0 22 24" fill="none" xmlns="http://www.w3.org/2000/svg">
<path d="M21.0515 8.355L11.3039 0.806405C11.1705 0.70324 11.0063 0.647895 10.8376 0.649255C10.669 0.650616 10.5057 0.708601 10.3739 0.813905L0.938011 8.36221C0.850136 8.4327 0.779206 8.52202 0.730451 8.62358C0.681696 8.72514 0.65636 8.83635 0.656311 8.94901V22.599C0.656272 22.6977 0.675683 22.7954 0.713435 22.8866C0.751188 22.9778 0.806541 23.0607 0.876332 23.1305C0.946123 23.2003 1.02898 23.2556 1.12018 23.2934C1.21137 23.3311 1.30911 23.3505 1.40781 23.3505H7.01691C7.2162 23.3504 7.4073 23.2712 7.54822 23.1303C7.68913 22.9894 7.76833 22.7983 7.76841 22.599V14.2413H14.2304V22.599C14.2304 22.7983 14.3096 22.9895 14.4505 23.1304C14.5915 23.2713 14.7826 23.3505 14.9819 23.3505H20.5919C20.7912 23.3504 20.9823 23.2712 21.1232 23.1303C21.2641 22.9894 21.3433 22.7983 21.3434 22.599V8.94901C21.3435 8.83426 21.3172 8.72102 21.2666 8.61803C21.216 8.51505 21.1424 8.42506 21.0515 8.355Z" fill="#FAFAFA"/>
</svg>
