<svg width="17" height="20" viewBox="0 0 17 20" fill="none" xmlns="http://www.w3.org/2000/svg">
<path d="M3 9.16625L15.7787 0.6475C15.8729 0.584869 15.9822 0.548939 16.0951 0.543537C16.2081 0.538135 16.3203 0.563463 16.42 0.616824C16.5197 0.670185 16.603 0.749581 16.6611 0.846554C16.7192 0.943528 16.7499 1.05445 16.75 1.1675V18.8325C16.7499 18.9456 16.7192 19.0565 16.6611 19.1534C16.603 19.2504 16.5197 19.3298 16.42 19.3832C16.3203 19.4365 16.2081 19.4619 16.0951 19.4565C15.9822 19.4511 15.8729 19.4151 15.7787 19.3525L3 10.8337V18.75C3 19.0815 2.8683 19.3995 2.63388 19.6339C2.39946 19.8683 2.08152 20 1.75 20C1.41848 20 1.10054 19.8683 0.866117 19.6339C0.631696 19.3995 0.5 19.0815 0.5 18.75V1.25C0.5 0.918479 0.631696 0.600537 0.866117 0.366117C1.10054 0.131696 1.41848 0 1.75 0C2.08152 0 2.39946 0.131696 2.63388 0.366117C2.8683 0.600537 3 0.918479 3 1.25V9.16625Z" fill="#FAFAFA"/>
</svg>
