<svg width="24" height="24" viewBox="0 0 24 24" fill="none" xmlns="http://www.w3.org/2000/svg">
<path d="M5.25 21C5.05109 21 4.86032 20.921 4.71967 20.7804C4.57902 20.6397 4.5 20.4489 4.5 20.25V3.75003C4.50006 3.61833 4.5348 3.48897 4.60072 3.37496C4.66664 3.26095 4.76141 3.1663 4.87552 3.10055C4.98963 3.03479 5.11904 3.00024 5.25073 3.00037C5.38243 3.0005 5.51177 3.0353 5.62575 3.10128L19.8757 11.3513C19.9894 11.4172 20.0837 11.5118 20.1493 11.6257C20.2149 11.7396 20.2494 11.8686 20.2494 12C20.2494 12.1314 20.2149 12.2605 20.1493 12.3744C20.0837 12.4882 19.9894 12.5829 19.8757 12.6488L5.62575 20.8988C5.51162 20.9651 5.38199 21 5.25 21Z" fill="#FAFAFA"/>
</svg>
