<svg width="18" height="18" viewBox="0 0 18 18" fill="none" xmlns="http://www.w3.org/2000/svg">
<path d="M13.765 12.0001C13.4282 12.0013 13.0952 12.0707 12.7859 12.2038C12.4766 12.337 12.1973 12.5313 11.965 12.7751L5.86997 9.72506C6.01991 9.27044 6.01991 8.77968 5.86997 8.32506L11.975 5.22006C12.4123 5.68087 13.0053 5.96264 13.6387 6.01059C14.2722 6.05854 14.9008 5.86925 15.4025 5.47951C15.9042 5.08977 16.243 4.52742 16.3532 3.90177C16.4633 3.27612 16.3369 2.63187 15.9985 2.09423C15.6601 1.55659 15.1339 1.16397 14.5222 0.992693C13.9104 0.821414 13.2568 0.883708 12.6885 1.16747C12.1201 1.45123 11.6775 1.93618 11.4468 2.52806C11.216 3.11995 11.2136 3.77648 11.44 4.37006L5.39497 7.44506C5.0685 7.04578 4.62652 6.75725 4.12963 6.61902C3.63274 6.48079 3.10526 6.49963 2.61949 6.67294C2.13372 6.84626 1.71345 7.16558 1.41628 7.58712C1.11911 8.00866 0.959595 8.5118 0.959595 9.02756C0.959595 9.54332 1.11911 10.0465 1.41628 10.468C1.71345 10.8895 2.13372 11.2089 2.61949 11.3822C3.10526 11.5555 3.63274 11.5743 4.12963 11.4361C4.62652 11.2979 5.0685 11.0093 5.39497 10.6101L11.425 13.6451C11.3231 13.9186 11.2706 14.2081 11.27 14.5001C11.27 14.9945 11.4166 15.4779 11.6913 15.889C11.966 16.3001 12.3565 16.6205 12.8133 16.8098C13.2701 16.999 13.7727 17.0485 14.2577 16.952C14.7427 16.8556 15.1881 16.6175 15.5377 16.2678C15.8874 15.9182 16.1255 15.4727 16.2219 14.9878C16.3184 14.5028 16.2689 14.0002 16.0797 13.5434C15.8905 13.0865 15.57 12.6961 15.1589 12.4214C14.7478 12.1467 14.2644 12.0001 13.77 12.0001H13.765ZM13.765 2.00006C14.0616 2.00006 14.3517 2.08803 14.5983 2.25286C14.845 2.41768 15.0373 2.65195 15.1508 2.92604C15.2643 3.20012 15.294 3.50172 15.2362 3.7927C15.1783 4.08367 15.0354 4.35094 14.8256 4.56072C14.6159 4.7705 14.3486 4.91336 14.0576 4.97124C13.7666 5.02912 13.465 4.99941 13.1909 4.88588C12.9169 4.77235 12.6826 4.58009 12.5178 4.33342C12.3529 4.08674 12.265 3.79673 12.265 3.50006C12.265 3.10224 12.423 2.72071 12.7043 2.4394C12.9856 2.1581 13.3672 2.00006 13.765 2.00006ZM3.49997 10.5001C3.2033 10.5001 2.91329 10.4121 2.66662 10.2473C2.41995 10.0824 2.22769 9.84817 2.11416 9.57409C2.00062 9.3 1.97092 8.9984 2.0288 8.70742C2.08667 8.41645 2.22954 8.14918 2.43931 7.9394C2.64909 7.72962 2.91637 7.58676 3.20734 7.52888C3.49831 7.471 3.79991 7.50071 4.074 7.61424C4.34809 7.72777 4.58236 7.92003 4.74718 8.16671C4.912 8.41338 4.99997 8.70339 4.99997 9.00006C4.99997 9.39788 4.84194 9.77942 4.56063 10.0607C4.27933 10.342 3.8978 10.5001 3.49997 10.5001ZM13.765 16.0001C13.4683 16.0001 13.1783 15.9121 12.9316 15.7473C12.6849 15.5824 12.4927 15.3482 12.3792 15.0741C12.2656 14.8 12.2359 14.4984 12.2938 14.2074C12.3517 13.9165 12.4945 13.6492 12.7043 13.4394C12.9141 13.2296 13.1814 13.0868 13.4723 13.0289C13.7633 12.971 14.0649 13.0007 14.339 13.1142C14.6131 13.2278 14.8474 13.42 15.0122 13.6667C15.177 13.9134 15.265 14.2034 15.265 14.5001C15.265 14.8979 15.1069 15.2794 14.8256 15.5607C14.5443 15.842 14.1628 16.0001 13.765 16.0001Z" fill="#FAFAFA"/>
</svg>
