<svg width="10" height="8" viewBox="0 0 10 8" fill="none" xmlns="http://www.w3.org/2000/svg">
<path d="M6.00275 2.05555L8.3972 2.05555L7.48053 2.97222C7.45463 2.99794 7.43405 3.0285 7.41996 3.06218C7.40588 3.09585 7.39856 3.13196 7.39843 3.16846C7.39817 3.24217 7.4272 3.31297 7.47914 3.36528C7.50486 3.39118 7.53542 3.41176 7.56909 3.42584C7.60277 3.43993 7.63888 3.44725 7.67538 3.44737C7.74909 3.44764 7.81989 3.4186 7.8722 3.36666L9.44442 1.8L9.2472 1.60278L7.8722 0.230553C7.81989 0.178615 7.74909 0.149582 7.67538 0.149843C7.60167 0.150103 7.53108 0.179635 7.47914 0.231942C7.4272 0.284248 7.39817 0.355045 7.39843 0.428757C7.39869 0.50247 7.42822 0.573059 7.48053 0.624998L8.36386 1.5L5.83331 1.5C5.78483 1.50029 5.73728 1.51326 5.69537 1.53763C5.65346 1.562 5.61865 1.5969 5.59442 1.63889L4.86108 2.91389L5.18331 3.46944L6.00275 2.05555Z" fill="#2A2A2A"/>
<path d="M3.07499 5.96389L0.83332 5.96389C0.759649 5.96389 0.688995 5.99316 0.636901 6.04525C0.584808 6.09734 0.555542 6.168 0.555542 6.24167C0.555542 6.31534 0.584808 6.38599 0.636901 6.43809C0.688995 6.49018 0.759649 6.51945 0.83332 6.51945L3.2361 6.51945C3.28457 6.51915 3.33213 6.50618 3.37404 6.48181C3.41595 6.45745 3.45075 6.42254 3.47499 6.38056L4.21665 5.11111L3.88888 4.55556L3.07499 5.96389Z" fill="#2A2A2A"/>
<path d="M7.87221 4.60278C7.8199 4.55084 7.74911 4.52181 7.67539 4.52207C7.60168 4.52233 7.53109 4.55186 7.47915 4.60416C7.42721 4.65647 7.39818 4.72727 7.39844 4.80098C7.3987 4.87469 7.42824 4.94528 7.48054 4.99722L8.45276 5.96944L6.00276 5.96944L3.47499 1.64722C3.45075 1.60524 3.41595 1.57033 3.37404 1.54596C3.33213 1.5216 3.28457 1.50862 3.2361 1.50833L0.83332 1.50833C0.759649 1.50833 0.688995 1.5376 0.636901 1.58969C0.584808 1.64178 0.555542 1.71244 0.555542 1.78611C0.555542 1.85978 0.584808 1.93043 0.636901 1.98253C0.688995 2.03462 0.759649 2.06389 0.83332 2.06389L3.07499 2.06389L5.60276 6.38333C5.627 6.42531 5.6618 6.46022 5.70371 6.48459C5.74562 6.50895 5.79318 6.52193 5.84165 6.52222L8.30554 6.52222L7.47221 7.35555C7.44631 7.38127 7.42573 7.41184 7.41164 7.44551C7.39756 7.47918 7.39024 7.5153 7.39011 7.55179C7.38998 7.58829 7.39704 7.62446 7.41089 7.65823C7.42474 7.692 7.4451 7.72271 7.47082 7.74861C7.49654 7.77451 7.5271 7.79509 7.56077 7.80918C7.59445 7.82326 7.63056 7.83058 7.66706 7.83071C7.70356 7.83084 7.73972 7.82378 7.77349 7.80993C7.80726 7.79608 7.83798 7.77572 7.86388 7.75L9.23887 6.37778L9.4361 6.18055L7.87221 4.60278Z" fill="#2A2A2A"/>
</svg>
