<svg width="20" height="20" viewBox="0 0 20 20" fill="none" xmlns="http://www.w3.org/2000/svg">
<path d="M10.01 0.0189819C4.51498 0.0189819 0.0189819 4.51498 0.0189819 10.01C0.0189819 15.504 4.51498 20 10.01 20C15.504 20 20 15.504 20 10.01C20 4.51498 15.554 0.0189819 10.01 0.0189819ZM14.605 14.455C14.406 14.754 14.056 14.855 13.755 14.656C11.406 13.206 8.45898 12.906 4.96198 13.705C4.61398 13.807 4.31398 13.557 4.21398 13.256C4.11298 12.906 4.36298 12.608 4.66398 12.507C8.45898 11.657 11.757 12.008 14.354 13.607C14.704 13.756 14.754 14.155 14.605 14.455ZM15.805 11.708C15.554 12.057 15.105 12.207 14.754 11.957C12.057 10.311 7.96198 9.80898 4.81498 10.809C4.41698 10.91 3.96498 10.709 3.86598 10.311C3.76498 9.90898 3.96598 9.45898 4.36498 9.35898C8.01098 8.26098 12.508 8.81098 15.604 10.71C15.904 10.859 16.054 11.358 15.805 11.708ZM15.904 8.90898C12.707 7.01198 7.36198 6.81198 4.31398 7.76298C4.08219 7.82977 3.83357 7.8047 3.61978 7.69296C3.406 7.58123 3.24347 7.39142 3.16598 7.16298C3.098 6.93091 3.12238 6.68154 3.23402 6.46702C3.34566 6.25251 3.53591 6.08946 3.76498 6.01198C7.31198 4.96298 13.157 5.16198 16.854 7.36298C17.303 7.61198 17.453 8.21198 17.203 8.66098C16.953 9.01098 16.354 9.15898 15.904 8.90898Z" fill="#AEAEAE"/>
</svg>
